<svg xmlns="http://www.w3.org/2000/svg" xmlns:xlink="http://www.w3.org/1999/xlink" version="1.1" x="0px" y="0px" viewBox="0 0 100 125" style="enable-background:new 0 0 100 100;" xml:space="preserve"><path d="M53.4,46.8l0.1,0.3c0,1.3,0.1,3,0.2,3.6c0.7,4.1,7.1,4.4,8.7,4.7c1.6,0.3,3-1.1,3-1.1S60.3,50,58.8,49  C57.3,48,53.4,46.8,53.4,46.8z"/><path d="M43.4,53.4c0.5-1.1,0.9-2.3,1.3-3.3c0.2-0.4-0.1-0.8-0.5-0.9c-1.4-0.1-3.3-0.3-3.7,0c-1.4,1-1.8,2.9-0.7,4.3  c0.5,0.6,1.4,0.8,2.4,0.8C42.7,54.3,43.2,53.9,43.4,53.4z"/><path d="M45.5,48c0.4-1,0.6-1.8,0.7-2.1c0.1-0.8,0.6-1.4-0.9-1.8c0,0-1.7-0.9-2.9-0.2c-1.2,0.7-2.4,3.3-0.4,4  c0.3,0.1,1.5,0.4,2.4,0.6C44.9,48.7,45.3,48.5,45.5,48z"/><path d="M41.6,54.9c-1.3,0.2-2.2,1.4-2,2.6c0.1,0.7,0.5,1.4,1,1.9c0.3,0.2,0.7,0.1,0.8-0.2c0.3-0.9,0.8-2.3,1.4-3.9  c0.1-0.3-0.1-0.5-0.4-0.5L41.6,54.9z"/><path d="M72.2,47.1c-1.1-1.9-5.3-6.5-6.7-7.5c-0.4-0.3-0.7-0.5-1-0.8l-2.2,5.8c-0.1,0.3-0.3,0.6-0.5,0.8c0.9,1.2,1.7,2.3,1.9,2.5  c0.3,0.3,3.2,4.8,2.6,6.8s-4.8,1.5-4.8,1.5c-0.3-0.2-8-0.6-8.7-4.7c-0.2-1-0.3-5.2-0.3-5.2s1.4-2.7,1.4-4.1c0.1-1.2-0.3-2.7-0.6-3.7  c0-0.1-0.1-0.3-0.1-0.3c-0.8-1.2-2.5-1.4-3.6-0.6l-0.1,0.1c-0.7,1.1-1.6,2.9-1.8,3.9c-0.2,0.9-0.1,2.2-1.1,4.6  c-1.3,3.1-2,5.5-2.7,7.3c-0.5,1.6-2,5.3-2.5,6.6c0,0,0,0,0,0c-1.1,2.6-1.8,4.8-2.1,6.5c-0.2,1.6,0.6,3.5,1.6,6.1  c0.2,0.5,0.2,1.1,0,1.6C40,77.5,38,78.7,38,78.7c-2.7,2.3,0.6,13.6,8.4,15.8c1.4,0.4,3.5,0,5.1-0.4c6.5-8.4,21.3-25.3,24.3-28.3  c1.4-1.4,3.2-5.6,1.1-9.8C75.7,53.5,73.1,48.6,72.2,47.1z"/><path d="M46.8,42c0.3-1.2,1.6-3.6,2.5-5l0.1-0.1c1.5-1,3.6-0.7,4.6,0.7c0,0.1,0.1,0.3,0.2,0.4c0.4,1.3,0.8,3.1,0.7,4.5  c0,0.5-0.6,2.2-0.6,2.2l2.6,1.3c1.7,0.6,3.6-0.2,4.2-1.9l8.5-22.4c0.6-1.7-0.2-3.6-1.9-4.2L34.3,4.9c-1.7-0.6-3.6,0.2-4.2,1.9  l-8.5,22.4c-0.6,1.7,0.2,3.6,1.9,4.2C23.5,33.3,46.7,42.3,46.8,42z"/><text x="0" y="115" fill="#000000" font-size="5px" font-weight="bold" font-family="'Helvetica Neue', Helvetica, Arial-Unicode, Arial, Sans-serif">Created by Robert Bjurshagen</text><text x="0" y="120" fill="#000000" font-size="5px" font-weight="bold" font-family="'Helvetica Neue', Helvetica, Arial-Unicode, Arial, Sans-serif">from the Noun Project</text></svg>