<svg xmlns="http://www.w3.org/2000/svg" viewBox="0 0 100 125" x="0px" y="0px"><title>Artboard 4</title><g><g><path d="M70.15,41.21a5.92,5.92,0,0,0-3.51,1.17,5.86,5.86,0,0,0-9.37-4.69V21.3a5.86,5.86,0,0,0-11.71,0A5.81,5.81,0,0,0,42,20.13,5.87,5.87,0,0,0,36.18,26V52.18a7.38,7.38,0,0,0-2.67-3,7.59,7.59,0,0,0-5.76-1.08l-2.83.61A1.16,1.16,0,0,0,24,50.07l5.32,25A17.54,17.54,0,0,0,46.72,90.41H58.44A17.56,17.56,0,0,0,76,72.84V47.07A5.86,5.86,0,0,0,70.15,41.21Zm3.51,31.63A15.2,15.2,0,0,1,58.44,88.07H46.72A15.22,15.22,0,0,1,31.64,74.72l-5.08-24,1.69-.35a5.18,5.18,0,0,1,4,.73,5.3,5.3,0,0,1,2.3,3.35l.61,3,1.08,6.25a1.2,1.2,0,0,0,1.27,1,1.15,1.15,0,0,0,1.05-1.17V26a3.51,3.51,0,0,1,7,0V54.1a1.17,1.17,0,0,0,1.17,1.17,1.16,1.16,0,0,0,1.17-1.17V21.3a3.51,3.51,0,1,1,7,0V54.1a1.17,1.17,0,0,0,1.17,1.17,1.16,1.16,0,0,0,1.17-1.17V42.39a3.51,3.51,0,0,1,7,0V54.1a1.17,1.17,0,0,0,1.17,1.17,1.16,1.16,0,0,0,1.17-1.17v-7a3.51,3.51,0,1,1,7,0Z"/><path d="M31.51,27.16A1.17,1.17,0,0,1,30.34,26a11.71,11.71,0,0,1,.24-2.35,11.72,11.72,0,0,1,3.2-5.92,11.85,11.85,0,0,1,1.73-1.43,11.7,11.7,0,0,1,2-1.08A11.61,11.61,0,0,1,42,14.27h0A11.73,11.73,0,0,1,43.15,13a11.85,11.85,0,0,1,1.73-1.43,11.7,11.7,0,0,1,2-1.08,11.44,11.44,0,0,1,2.2-.69A11.67,11.67,0,0,1,58,11.6a11.91,11.91,0,0,1,3.16,3.16,11.64,11.64,0,0,1,2,6.54,1.17,1.17,0,1,1-2.34,0,9.3,9.3,0,0,0-1.6-5.23,9.5,9.5,0,0,0-2.54-2.54,9.29,9.29,0,0,0-8.86-.87,9.36,9.36,0,0,0-1.59.87,9.5,9.5,0,0,0-2.54,2.54,1.17,1.17,0,0,1-.92.51l-.64,0a9.23,9.23,0,0,0-3.69.74,9.36,9.36,0,0,0-1.59.87,9.5,9.5,0,0,0-2.54,2.54,9.34,9.34,0,0,0-1.41,3.34A9.37,9.37,0,0,0,32.68,26,1.17,1.17,0,0,1,31.51,27.16Z"/></g></g><text x="0" y="115" fill="#000000" font-size="5px" font-weight="bold" font-family="'Helvetica Neue', Helvetica, Arial-Unicode, Arial, Sans-serif">Created by Paperclip</text><text x="0" y="120" fill="#000000" font-size="5px" font-weight="bold" font-family="'Helvetica Neue', Helvetica, Arial-Unicode, Arial, Sans-serif">from the Noun Project</text></svg>