<svg xmlns="http://www.w3.org/2000/svg" xmlns:xlink="http://www.w3.org/1999/xlink" version="1.1" x="0px" y="0px" viewBox="0 0 100 125" enable-background="new 0 0 100 100" xml:space="preserve"><path d="M81.155,64.816c-0.006-0.015-0.016-0.026-0.021-0.04L68.429,34.481c-0.707-1.699-2.057-3.062-3.703-3.739  c-1.516-0.624-3.172-0.624-4.658,0c-1.126,0.469-2.028,1.2-2.681,2.088l-3.703-8.877c-0.667-1.602-1.85-2.865-3.332-3.559  c-1.554-0.728-3.294-0.762-4.899-0.091c-1.074,0.448-1.962,1.164-2.61,2.07l-0.098-0.234c-0.708-1.706-1.985-3.011-3.595-3.675  c-1.488-0.614-3.139-0.606-4.651,0.025c-2.947,1.241-4.365,4.46-3.485,7.585c-1.092-0.182-2.246-0.066-3.367,0.403  c-3.207,1.338-4.617,5.03-3.211,8.406l10.923,26.167c-2.259-1.559-4.161-2.519-4.288-2.582c-3.263-1.66-6.228-1.082-8.354,1.63  c-2.136,2.733-1.549,6.646,1.335,8.909l0.221,0.173l0.268,0.081c0.064,0.02,6.443,2.03,10.657,9.082  c0.631,1.056,1.183,1.998,1.686,2.856c1.445,2.466,2.488,4.248,3.819,6.021l1.933,2.015c0.01,0.012,0.017,0.025,0.027,0.037  c1.804,2.026,6.013,5.615,13.171,5.615c3.118,0,6.796-0.681,11.078-2.469l3.014-1.254C81.414,86.369,85.822,76.026,81.155,64.816z   M68.77,88.396l-3.014,1.254c-8.41,3.51-15.797,2.797-20.406-1.913c-0.004-0.004-0.005-0.01-0.009-0.014l-2.295-2.377  c-1.203-1.614-2.201-3.318-3.575-5.663c-0.507-0.865-1.063-1.815-1.699-2.879c-4.308-7.209-10.588-9.789-12.054-10.311  c-1.456-1.269-1.732-3.148-0.639-4.546c1.225-1.564,2.654-1.813,4.642-0.8c0.05,0.025,4.999,2.519,8.152,5.926l1.141,2.733  c0.24,0.575,0.798,0.922,1.385,0.922c0.193,0,0.389-0.037,0.577-0.116c0.765-0.318,1.125-1.197,0.807-1.962L27.205,33.729  c-0.772-1.854-0.085-3.781,1.6-4.484c1.698-0.713,3.502,0.13,4.301,1.997l12.149,29.134c0.008,0.021,0.024,0.035,0.033,0.055  l1.19,2.852c0.319,0.765,1.198,1.122,1.962,0.807c0.765-0.319,1.125-1.198,0.807-1.963l-13.36-32.017  c-0.007-0.018-0.017-0.034-0.024-0.051l-1.795-4.305c-0.779-1.854-0.093-3.788,1.591-4.498c0.779-0.325,1.59-0.332,2.348-0.019  c0.869,0.358,1.567,1.087,1.969,2.054l2.438,5.842l11.517,27.623c0.01,0.022,0.026,0.039,0.037,0.062l1.188,2.845  c0.318,0.763,1.192,1.126,1.962,0.806c0.764-0.318,1.125-1.197,0.806-1.962L45.328,28.329l-0.319-0.766  c-0.378-0.905-0.422-1.865-0.122-2.701c0.207-0.576,0.672-1.354,1.72-1.791c1.045-0.435,1.921-0.219,2.474,0.04  c0.804,0.376,1.455,1.084,1.834,1.996l11.694,28.03c0.005,0.013,0.014,0.023,0.02,0.035l1.494,3.581  c0.318,0.763,1.192,1.126,1.962,0.806c0.764-0.318,1.125-1.197,0.806-1.962l-7.385-17.694c-0.75-1.817-0.028-3.665,1.719-4.393  c0.961-0.402,1.815-0.218,2.361,0.007c0.915,0.376,1.671,1.148,2.076,2.121L78.38,65.965c0.003,0.008,0.009,0.013,0.012,0.02  C83.194,77.541,76.57,85.14,68.77,88.396z"/><path d="M46.074,10.767c0.016,0.096,0.02,0.19,0.054,0.283c0.034,0.093,0.098,0.172,0.15,0.257c0.046,0.074,0.071,0.157,0.131,0.224  l3.678,4.117c0.296,0.332,0.707,0.5,1.12,0.5c0.355,0,0.712-0.126,0.998-0.381c0.618-0.552,0.672-1.5,0.12-2.118l-1.481-1.659  C71.59,12.496,76.109,31.835,76.293,32.68c0.152,0.702,0.773,1.183,1.464,1.183c0.105,0,0.211-0.011,0.317-0.034  c0.81-0.174,1.325-0.972,1.151-1.782c-0.05-0.229-5.087-22.314-28.018-23.042l1.3-1.286c0.589-0.583,0.595-1.532,0.012-2.122  c-0.581-0.589-1.532-0.593-2.121-0.012l-3.925,3.88c-0.064,0.063-0.094,0.144-0.145,0.215c-0.059,0.083-0.127,0.158-0.167,0.249  c-0.039,0.088-0.048,0.182-0.069,0.275c-0.022,0.095-0.054,0.186-0.057,0.283C46.033,10.581,46.059,10.672,46.074,10.767z"/><text x="0" y="115" fill="#000000" font-size="5px" font-weight="bold" font-family="'Helvetica Neue', Helvetica, Arial-Unicode, Arial, Sans-serif">Created by VectorBakery</text><text x="0" y="120" fill="#000000" font-size="5px" font-weight="bold" font-family="'Helvetica Neue', Helvetica, Arial-Unicode, Arial, Sans-serif">from the Noun Project</text></svg>